<svg xmlns="http://www.w3.org/2000/svg" width="90.236" height="66.742" viewBox="0 0 90.236 66.742">
  <g id="Groupe_1374" data-name="Groupe 1374" transform="translate(7.404 -711.758)">
    <g id="Groupe_1369" data-name="Groupe 1369">
      <g id="Groupe_696" data-name="Groupe 696" transform="matrix(0.629, -0.777, 0.777, 0.629, -375.6, 655.025)">
        <path id="Tracé_1382" data-name="Tracé 1382" d="M181.939,389.213c-14.716-4.533-24.193-30.13-25.531-37.939s9.626-2.786,17.8,2c4.883,2.859,13.78-1.313,21.583,8.705s4.626,23.085,4.626,23.085Z" transform="translate(0)" fill="#b5dee5" fill-rule="evenodd"/>
        <path id="Tracé_1383" data-name="Tracé 1383" d="M211.038,401.725c-1.613-5.722-6.548-17.887-24.362-30.3" transform="translate(-18.295 -14.583)" fill="none" stroke="#fff" stroke-miterlimit="22.926" stroke-width="0.567" fill-rule="evenodd"/>
        <line id="Ligne_3" data-name="Ligne 3" y1="12.616" x2="2.451" transform="translate(188.614 364.984)" fill="none" stroke="#fff" stroke-miterlimit="22.926" stroke-width="0.567"/>
      </g>
      <g id="Groupe_695" data-name="Groupe 695" transform="matrix(0.891, -0.454, 0.454, 0.891, 23, 730.011)">
        <path id="Tracé_1396" data-name="Tracé 1396" d="M185.591,554.974c8.927-9.313,14.584-12.544,8.829-16.421s-9-2.455-12.386,11.373a47.892,47.892,0,0,0-1.426,8.245Z" transform="translate(-160.191 -536.685)" fill="#45b0c1" fill-rule="evenodd"/>
        <path id="Tracé_1397" data-name="Tracé 1397" d="M172.766,555.01c4.226-1.493,21.973-3.936,24.492,6.662s-10.389,9.137-14.5,6.587-13.19-8.5-15.724-9.52C171.1,556.1,172.766,555.01,172.766,555.01Z" transform="translate(-147.453 -536.685)" fill="#45b0c1" fill-rule="evenodd"/>
        <path id="Tracé_1398" data-name="Tracé 1398" d="M216.932,550.228s-15.265,5.221-35.762,23.17" transform="translate(-180.936 -536.685)" fill="none" stroke="#45b0c1" stroke-miterlimit="22.926" stroke-width="0.567" fill-rule="evenodd"/>
        <path id="Tracé_1399" data-name="Tracé 1399" d="M190.464,570.867c7.9.538,14.615,1.06,19.456,1.607s8.519,3.9,6.828,10.86c-3.386,13.954-24.3-6.312-29.359-9.932C186.308,572.63,189.139,570.777,190.464,570.867Z" transform="translate(-187.148 -536.685)" fill="#45b0c1" fill-rule="evenodd"/>
        <path id="Tracé_1400" data-name="Tracé 1400" d="M166.413,550.845c6.513-6.971,11.462-11.7,15.48-6.721S170.18,552.734,166.413,550.845Z" transform="translate(-131.791 -536.685)" fill="#45b0c1" fill-rule="evenodd"/>
      </g>
    </g>
  </g>
</svg>
